HIERARCHY
ROOT Hips
{
    OFFSET   0.000000   0.000000   0.000000
    CHANNELS 6 Xposition Yposition Zposition Zrotation Xrotation Yrotation
    JOINT Chest
    {
        OFFSET   0.000000   8.007240   0.000000
        CHANNELS 3 Zrotation Xrotation Yrotation
        JOINT Chest2
        {
            OFFSET   0.000000  22.077100   0.000000
            CHANNELS 3 Zrotation Xrotation Yrotation
            JOINT Neck
            {
                OFFSET   0.000000  23.254800   0.000000
                CHANNELS 3 Zrotation Xrotation Yrotation
                JOINT Head
                {
                    OFFSET   0.000000  14.370000   1.956600
                    CHANNELS 3 Zrotation Xrotation Yrotation
                    End Site
                    {
                        OFFSET   0.000000  19.566000   0.000000
                    }
                }
            }
            JOINT LeftCollar
            {
                OFFSET   3.911900  19.017000  -0.467064
                CHANNELS 3 Zrotation Xrotation Yrotation
                JOINT LeftShoulder
                {
                    OFFSET  10.383700   0.000000   0.000000
                    CHANNELS 3 Zrotation Xrotation Yrotation
                    JOINT LeftElbow
                    {
                        OFFSET  26.662100   0.001476   0.000517
                        CHANNELS 3 Zrotation Xrotation Yrotation
                        JOINT LeftWrist
                        {
                            OFFSET  28.869000  -0.000025  -0.000106
                            CHANNELS 3 Zrotation Xrotation Yrotation
                            JOINT LeftFinger0
                            {
                                OFFSET   2.044660  -2.323460   3.252850
                                CHANNELS 3 Zrotation Xrotation Yrotation
                                JOINT LeftFinger01
                                {
                                    OFFSET   3.088130   0.000000   0.000000
                                    CHANNELS 3 Zrotation Xrotation Yrotation
                                    JOINT LeftFinger02
                                    {
                                        OFFSET   2.639460   0.000000   0.000000
                                        CHANNELS 3 Zrotation Xrotation Yrotation
                                        End Site
                                        {
                                            OFFSET   2.582190   0.000000   0.000000
                                        }
                                    }
                                }
                            }
                            JOINT LeftFinger1
                            {
                                OFFSET   8.364480   0.000000   3.252850
                                CHANNELS 3 Zrotation Xrotation Yrotation
                                JOINT LeftFinger11
                                {
                                    OFFSET   4.646930   0.000000   0.000000
                                    CHANNELS 3 Zrotation Xrotation Yrotation
                                    JOINT LeftFinger12
                                    {
                                        OFFSET   2.323460   0.000000   0.000000
                                        CHANNELS 3 Zrotation Xrotation Yrotation
                                        End Site
                                        {
                                            OFFSET   2.273050   0.000000   0.000000
                                        }
                                    }
                                }
                            }
                            JOINT LeftFinger2
                            {
                                OFFSET   8.364490   0.000015   1.078090
                                CHANNELS 3 Zrotation Xrotation Yrotation
                                JOINT LeftFinger21
                                {
                                    OFFSET   5.111620   0.000000   0.000000
                                    CHANNELS 3 Zrotation Xrotation Yrotation
                                    JOINT LeftFinger22
                                    {
                                        OFFSET   2.788160   0.000016   0.000000
                                        CHANNELS 3 Zrotation Xrotation Yrotation
                                        End Site
                                        {
                                            OFFSET   2.727660   0.000000   0.000000
                                        }
                                    }
                                }
                            }
                            JOINT LeftFinger3
                            {
                                OFFSET   7.899780   0.000017  -1.078090
                                CHANNELS 3 Zrotation Xrotation Yrotation
                                JOINT LeftFinger31
                                {
                                    OFFSET   4.646930   0.000000   0.000000
                                    CHANNELS 3 Zrotation Xrotation Yrotation
                                    JOINT LeftFinger32
                                    {
                                        OFFSET   2.323470   0.000000   0.000000
                                        CHANNELS 3 Zrotation Xrotation Yrotation
                                        End Site
                                        {
                                            OFFSET   2.273050   0.000000   0.000000
                                        }
                                    }
                                }
                            }
                            JOINT LeftFinger4
                            {
                                OFFSET   7.435090   0.000000  -3.252850
                                CHANNELS 3 Zrotation Xrotation Yrotation
                                JOINT LeftFinger41
                                {
                                    OFFSET   3.717550   0.000000   0.000000
                                    CHANNELS 3 Zrotation Xrotation Yrotation
                                    JOINT LeftFinger42
                                    {
                                        OFFSET   1.858770   0.000000   0.000000
                                        CHANNELS 3 Zrotation Xrotation Yrotation
                                        End Site
                                        {
                                            OFFSET   1.818440   0.000000   0.000000
                                        }
                                    }
                                }
                            }
                        }
                    }
                }
            }
            JOINT RightCollar
            {
                OFFSET  -3.911900  19.017000  -0.467063
                CHANNELS 3 Zrotation Xrotation Yrotation
                JOINT RightShoulder
                {
                    OFFSET -10.383700   0.000019   0.000000
                    CHANNELS 3 Zrotation Xrotation Yrotation
                    JOINT RightElbow
                    {
                        OFFSET -26.662100   0.001175   0.000102
                        CHANNELS 3 Zrotation Xrotation Yrotation
                        JOINT RightWrist
                        {
                            OFFSET -28.869000   0.000016  -0.000079
                            CHANNELS 3 Zrotation Xrotation Yrotation
                            JOINT RightFinger0
                            {
                                OFFSET  -2.044660  -2.323490   3.252850
                                CHANNELS 3 Zrotation Xrotation Yrotation
                                JOINT RightFinger01
                                {
                                    OFFSET  -3.088140   0.000000   0.000000
                                    CHANNELS 3 Zrotation Xrotation Yrotation
                                    JOINT RightFinger02
                                    {
                                        OFFSET  -2.639460   0.000000   0.000000
                                        CHANNELS 3 Zrotation Xrotation Yrotation
                                        End Site
                                        {
                                            OFFSET  -2.582190   0.000000   0.000000
                                        }
                                    }
                                }
                            }
                            JOINT RightFinger1
                            {
                                OFFSET  -8.364480   0.000000   3.252850
                                CHANNELS 3 Zrotation Xrotation Yrotation
                                JOINT RightFinger11
                                {
                                    OFFSET  -4.646930   0.000000   0.000000
                                    CHANNELS 3 Zrotation Xrotation Yrotation
                                    JOINT RightFinger12
                                    {
                                        OFFSET  -2.323470   0.000000   0.000000
                                        CHANNELS 3 Zrotation Xrotation Yrotation
                                        End Site
                                        {
                                            OFFSET  -2.273050   0.000000   0.000000
                                        }
                                    }
                                }
                            }
                            JOINT RightFinger2
                            {
                                OFFSET  -8.364480   0.000000   1.078090
                                CHANNELS 3 Zrotation Xrotation Yrotation
                                JOINT RightFinger21
                                {
                                    OFFSET  -5.111620   0.000000   0.000000
                                    CHANNELS 3 Zrotation Xrotation Yrotation
                                    JOINT RightFinger22
                                    {
                                        OFFSET  -2.788160   0.000000   0.000000
                                        CHANNELS 3 Zrotation Xrotation Yrotation
                                        End Site
                                        {
                                            OFFSET  -2.727660   0.000000   0.000000
                                        }
                                    }
                                }
                            }
                            JOINT RightFinger3
                            {
                                OFFSET  -7.899780   0.000000  -1.078090
                                CHANNELS 3 Zrotation Xrotation Yrotation
                                JOINT RightFinger31
                                {
                                    OFFSET  -4.646930   0.000000   0.000000
                                    CHANNELS 3 Zrotation Xrotation Yrotation
                                    JOINT RightFinger32
                                    {
                                        OFFSET  -2.323470   0.000000   0.000000
                                        CHANNELS 3 Zrotation Xrotation Yrotation
                                        End Site
                                        {
                                            OFFSET  -2.273050   0.000000   0.000000
                                        }
                                    }
                                }
                            }
                            JOINT RightFinger4
                            {
                                OFFSET  -7.435090   0.000000  -3.252850
                                CHANNELS 3 Zrotation Xrotation Yrotation
                                JOINT RightFinger41
                                {
                                    OFFSET  -3.717550   0.000000   0.000000
                                    CHANNELS 3 Zrotation Xrotation Yrotation
                                    JOINT RightFinger42
                                    {
                                        OFFSET  -1.858770   0.000000   0.000000
                                        CHANNELS 3 Zrotation Xrotation Yrotation
                                        End Site
                                        {
                                            OFFSET  -1.818440   0.000000   0.000000
                                        }
                                    }
                                }
                            }
                        }
                    }
                }
            }
        }
    }
    JOINT LeftHip
    {
        OFFSET   9.783040   0.000000   0.000000
        CHANNELS 3 Zrotation Xrotation Yrotation
        JOINT LeftKnee
        {
            OFFSET   0.000032 -41.789100  -0.002222
            CHANNELS 3 Zrotation Xrotation Yrotation
            JOINT LeftAnkle
            {
                OFFSET   0.000087 -41.133200  -0.000135
                CHANNELS 3 Zrotation Xrotation Yrotation
                JOINT LeftToe
                {
                    OFFSET   0.000000  -6.358960  14.674500
                    CHANNELS 3 Zrotation Xrotation Yrotation
                    End Site
                    {
                        OFFSET   0.000000   0.000000   3.913200
                    }
                }
            }
        }
    }
    JOINT RightHip
    {
        OFFSET  -9.783040   0.000000   0.000000
        CHANNELS 3 Zrotation Xrotation Yrotation
        JOINT RightKnee
        {
            OFFSET   0.000047 -41.789100  -0.000896
            CHANNELS 3 Zrotation Xrotation Yrotation
            JOINT RightAnkle
            {
                OFFSET  -0.000117 -41.133300  -0.000248
                CHANNELS 3 Zrotation Xrotation Yrotation
                JOINT RightToe
                {
                    OFFSET   0.000000  -6.358970  14.674500
                    CHANNELS 3 Zrotation Xrotation Yrotation
                    End Site
                    {
                        OFFSET   0.000000   0.000000   3.913200
                    }
                }
            }
        }
    }
}
MOTION
Frames: 6
Frame Time:   0.016667
 -7.059130  88.237200   0.314841   1.783590 -25.690100  13.246500   1.636680  15.254000   3.599310   2.367930  30.577100   7.130530   3.905060  -1.025090   0.069745   6.421240  -2.049560 -24.921300  -6.505570  -9.912380  -3.610460 -65.605400  21.080300  -9.452050  -0.462170  -3.670800 -20.391200  12.049900  -7.074250   0.040698  40.796800  30.936900 -58.916600 -27.848600   0.003752   0.005854  -8.924320   0.001874  -0.006933 -30.709600   5.280120  -8.805570 -25.463500   0.001018   0.002130 -17.824500   0.000148  -0.003969 -28.730400   0.384206  -0.701346 -39.786700  -0.001490   0.002024 -26.497900   0.002213  -0.002583 -28.520400   0.381584  -0.702738 -36.414600  -0.000565   0.000721 -24.252100  -0.000533  -0.002597 -30.754600   0.415598  -0.699638 -46.134800  -0.001035  -0.002672 -30.725800  -0.000937  -0.001190   7.392340  -6.863480   6.452940  54.132400   1.910660  54.105300 -23.715700 -43.399600  89.569900  64.932000 -50.943400  63.601100 -39.856600  38.343800  64.115100  36.772000  -0.011250  -0.002969  13.588900  -0.008565   0.000562  88.996500   5.002370   0.083358  83.935800   0.002294   0.002786  62.951900   0.003292  -0.005260  89.000000   0.001321  -0.004201  99.028300   0.000732   0.000194  74.271200   0.001873  -0.001562  88.996000  -4.999670  -0.089652 100.226000   0.002846   0.000797  75.169700   0.000883  -0.004339  88.985900  -9.992580  -0.168640 110.000000   0.000000  -0.010699  80.000000  -0.004523   0.006387   6.765930  14.307600  -3.931930   5.346910  23.721400   1.102980  -9.461210 -11.047800 -10.257800  -0.000000   0.000000   0.000000  11.567700  27.099700  -7.716650   1.188420   1.008550 -20.972500  -4.014030  -6.406720   2.455720  -0.000000   0.000000  -0.000000
 -7.071670  88.256100   0.305341   1.958060 -25.629800  13.457700   1.576060  15.253900   3.582900   2.244320  30.574900   7.114380   3.869180  -1.071740   0.072459   6.362670  -2.143190 -24.838600  -6.500630  -9.915330  -3.542920 -65.511800  21.174700  -9.451430  -0.505471  -3.836490 -20.030000  12.045900  -6.673740   0.029258  40.805500  30.926500 -59.031700 -27.837800   0.003662   0.005843  -8.918940   0.001845  -0.006823 -30.658000   5.379390  -8.988060 -25.430100   0.002008   0.002131 -17.801100   0.000169  -0.004048 -28.721600   0.498246  -0.909535 -39.617300  -0.001486   0.002031 -26.385100   0.002157  -0.002607 -28.505500   0.494682  -0.911438 -36.263700  -0.000566   0.000723 -24.151600  -0.000535  -0.002628 -30.598300   0.531729  -0.900501 -45.904200  -0.001035  -0.002584 -30.572200  -0.000936  -0.001143   7.215290  -6.646670   6.356220  54.098300   1.828140  54.263900 -23.797100 -43.427200  89.317600  65.056500 -51.085000  63.738800 -39.852800  38.331000  64.111500  36.752000  -0.011251  -0.003070  13.569800  -0.008611   0.000565  88.996500   5.002320   0.083463  83.962700   0.002569   0.002709  62.972100   0.003313  -0.005776  89.000000   0.001280  -0.004049  99.081600   0.000752   0.000170  74.311200   0.001898  -0.001793  88.996000  -4.999870  -0.089685 100.239000   0.002903   0.000723  75.179500   0.000854  -0.004235  88.985900  -9.992570  -0.168523 110.000000   0.000000  -0.010680  80.000000  -0.004566   0.006473   6.696020  14.357300  -3.936270   5.286870  23.475500   1.242260  -9.485650 -10.847100 -10.505300  -0.000000   0.000000  -0.000000  11.463700  27.074400  -7.753830   1.200790   0.999993 -21.054900  -4.016440  -6.427080   2.427360  -0.000000   0.000000  -0.000000
 -7.073290  88.270800   0.295021   2.101820 -25.579500  13.648900   1.530720  15.255800   3.566900   2.152920  30.577000   7.094420   3.831720  -1.106070   0.073905   6.301560  -2.212380 -24.733700  -6.517750  -9.903530  -3.492150 -65.411600  21.246500  -9.468730  -0.508182  -3.829150 -19.708900  12.157000  -6.442190  -0.002518  40.716200  30.781400 -59.025600 -27.867400   0.003574   0.005829  -8.933690   0.001813  -0.006711 -30.652300   5.369590  -8.972460 -25.423600   0.002293   0.002134 -17.796500   0.000212  -0.004126 -28.721800   0.584189  -1.066260 -39.618100  -0.001488   0.002039 -26.385600   0.002105  -0.002627 -28.495000   0.579954  -1.068550 -36.157300  -0.000565   0.000722 -24.080800  -0.000535  -0.002654 -30.488300   0.551488  -0.937738 -45.739200  -0.001035  -0.002498 -30.462300  -0.000933  -0.001097   7.059450  -6.472520   6.259290  54.104200   1.812260  54.430900 -23.933400 -43.517600  89.037600  65.338400 -51.166400  63.941600 -39.963100  38.485500  64.275200  36.734300  -0.011250  -0.003169  13.555000  -0.008659   0.000564  88.996500   5.002270   0.083585  83.940600   0.002860   0.002654  62.955500   0.003331  -0.006301  89.000000   0.001243  -0.003885  99.062200   0.000763   0.000173  74.296700   0.001920  -0.002047  88.996000  -5.000070  -0.089711 100.130000   0.002968   0.000647  75.097200   0.000828  -0.004147  88.986000  -9.992550  -0.168405 110.000000   0.000000  -0.010670  80.000000  -0.004597   0.006536   6.618460  14.385600  -3.892510   5.276350  23.282000   1.289010  -9.475890 -10.684200 -10.708900   0.000000   0.000000   0.000000  11.381000  27.053700  -7.784440   1.214480   0.994901 -21.144000  -4.008390  -6.449350   2.405180  -0.000000   0.000000   0.000000
 -7.073520  88.282700   0.284339   2.219010 -25.538000  13.812300   1.496960  15.261100   3.554330   2.085060  30.584400   7.078150   3.797900  -1.134970   0.074872   6.246350  -2.270770 -24.619400  -6.541200  -9.886740  -3.445650 -65.334800  21.285100  -9.483890  -0.517239  -3.783740 -19.450700  12.311100  -6.299690  -0.051667  40.547100  30.575400 -58.963900 -27.903200   0.003491   0.005811  -8.951560   0.001778  -0.006599 -30.652100   5.359790  -8.956860 -25.422700   0.002417   0.002135 -17.795900   0.000267  -0.004200 -28.723700   0.648147  -1.182760 -39.623700  -0.001489   0.002044 -26.389300   0.002053  -0.002642 -28.488700   0.643435  -1.185340 -36.102400  -0.000564   0.000721 -24.044200  -0.000534  -0.002675 -30.431300   0.562636  -0.957157 -45.653900  -0.001035  -0.002412 -30.405500  -0.000931  -0.001052   6.928930  -6.332440   6.173680  54.100900   1.804140  54.587200 -24.073800 -43.619500  88.782200  65.653700 -51.252400  64.158400 -40.155900  38.733900  64.561100  36.699700  -0.011248  -0.003268  13.525200  -0.008704   0.000562  88.996500   5.002220   0.083709  83.906200   0.003163   0.002604  62.929600   0.003359  -0.006821  89.000000   0.001204  -0.003720  99.042900   0.000781   0.000178  74.282100   0.001939  -0.002313  88.996000  -5.000280  -0.089734 100.020000   0.003043   0.000574  75.015000   0.000807  -0.004061  88.986000  -9.992540  -0.168293 110.000000  -0.000000  -0.010658  80.000000  -0.004625   0.006593   6.534190  14.397000  -3.827180   5.287530  23.135000   1.294520  -9.443020 -10.559500 -10.831300   0.000000   0.000000   0.000000  11.307300  27.033900  -7.800900   1.231210   0.992880 -21.225600  -3.990210  -6.473930   2.383860   0.000000   0.000000  -0.000000
 -7.067990  88.291700   0.272764   2.312980 -25.503400  13.939900   1.471020  15.271400   3.546650   2.031610  30.603400   7.070160   3.768320  -1.164230   0.075875   6.198030  -2.330050 -24.496600  -6.548500  -9.879920  -3.392710 -65.327400  21.214400  -9.458100  -0.538415  -3.679960 -19.300300  12.368800  -6.245090  -0.113149  40.397200  30.360800 -58.903900 -27.910500   0.003416   0.005788  -8.955210   0.001737  -0.006492 -30.697500   5.408700  -9.022920 -25.464200   0.002635   0.002135 -17.825000   0.000325  -0.004268 -28.724200   0.680348  -1.242250 -39.741800  -0.001488   0.002043 -26.468000   0.001997  -0.002650 -28.495600   0.675426  -1.244930 -36.198400  -0.000564   0.000719 -24.108200  -0.000529  -0.002689 -30.495100   0.606044  -1.028770 -45.750600  -0.001035  -0.002327 -30.469900  -0.000936  -0.001007   6.843480  -6.243200   6.116110  54.148200   1.798250  54.721600 -24.133500 -43.656600  88.654600  65.910700 -51.361300  64.312600 -40.315800  38.897900  64.810400  36.604900  -0.011242  -0.003368  13.441500  -0.008737   0.000563  88.996500   5.002170   0.083819  83.894800   0.003471   0.002545  62.921100   0.003413  -0.007328  89.000000   0.001164  -0.003564  99.059400   0.000822   0.000180  74.294500   0.001956  -0.002584  88.996000  -5.000480  -0.089757 100.064000   0.003132   0.000515  75.048200   0.000798  -0.003961  88.986000  -9.992520  -0.168190 110.000000   0.000000  -0.010635  80.000000  -0.004656   0.006657   6.449420  14.402000  -3.786490   5.322380  23.024300   1.251070  -9.403720 -10.480700 -10.858300  -0.000000   0.000000  -0.000000  11.232900  27.004800  -7.786220   1.254950   1.011820 -21.292800  -3.968170  -6.508120   2.347110  -0.000000   0.000000   0.000000
 -7.057180  88.299400   0.260486   2.382450 -25.472000  14.030400   1.458970  15.282000   3.543550   2.006480  30.623800   7.067420   3.741030  -1.191820   0.076820   6.153460  -2.385980 -24.372600  -6.554600  -9.878050  -3.335280 -65.366000  21.071000  -9.399230  -0.569191  -3.563580 -19.246700  12.380200  -6.231660  -0.188060  40.321600  30.215500 -58.889200 -27.911500   0.003343   0.005760  -8.955730   0.001696  -0.006382 -30.736800   5.476550  -9.118430 -25.505800   0.002852   0.002132 -17.854100   0.000387  -0.004330 -28.724500   0.689773  -1.258160 -39.862100  -0.001487   0.002040 -26.548200   0.001942  -0.002652 -28.505000   0.684856  -1.260840 -36.294500  -0.000563   0.000718 -24.172100  -0.000526  -0.002696 -30.558800   0.648271  -1.097890 -45.847300  -0.001036  -0.002241 -30.534300  -0.000940  -0.000963   6.779540  -6.185690   6.076250  54.243000   1.793510  54.838700 -24.210200 -43.718100  88.544900  66.205000 -51.483900  64.509100 -40.505300  39.084400  65.078500  36.505500  -0.011238  -0.003467  13.355200  -0.008772   0.000565  88.996500   5.002120   0.083928  83.864300   0.003792   0.002494  62.898200   0.003475  -0.007820  89.000000   0.001121  -0.003405  99.075900   0.000872   0.000186  74.307000   0.001975  -0.002864  88.996000  -5.000680  -0.089782 100.140000   0.003233   0.000461  75.105300   0.000796  -0.003865  88.986000  -9.992510  -0.168095 110.000000   0.000000  -0.010609  80.000000  -0.004686   0.006724   6.366880  14.402900  -3.766980   5.369530  22.939300   1.184550  -9.366030 -10.429900 -10.860700  -0.000000   0.000000   0.000000  11.160900  26.978200  -7.759390   1.285830   1.030980 -21.326200  -3.946240  -6.529590   2.306120   0.000000   0.000000  -0.000000
